<svg xmlns="http://www.w3.org/2000/svg" xmlns:xlink="http://www.w3.org/1999/xlink" viewBox="0 0 385.9 294.18"><defs><style>.\35 05a8604-a6bd-4493-9890-a9726ad87963{mask:url(#e8e85687-1e4c-4775-9490-a7e4489254d3);filter:url(#3c160e4b-dfbf-4a16-b197-c3a357348d90);}.\35 8c686c0-3d7c-43b5-8aae-fc6d660414a6,.\38 e38dff3-11a8-4d43-b6a6-5fa9fbe06e14{mix-blend-mode:multiply;}.\38 e38dff3-11a8-4d43-b6a6-5fa9fbe06e14{fill:url(#df2a9fff-231f-4fd7-b34c-39bec5322c84);}.\38 ab66d47-c600-4bba-a95e-8c0eede99b00{isolation:isolate;}.\35 41ecaba-6e36-47b5-9612-ce2ffd870a1c{fill:#e7b141;}.\35 8d14451-62b1-4c84-a650-0303463b0da8{fill:#222220;}.\35 8c686c0-3d7c-43b5-8aae-fc6d660414a6{fill:#d9d9d9;}.\39 257f10e-ccfc-47a9-a7cd-a3a09b993c93,.fb2c361f-d142-46ba-8376-35c4ab28544d{fill:#fff;}.c6a27e3d-7671-4991-8507-ed4b8e6ad27c{fill:#cd5733;}.\32 a8bfcc2-c505-46da-b258-7fa5a677dcfd{fill:#d37037;}.\37 eeed9b0-cd23-43c5-bc0d-1dd8f6d48c97{fill:#db8e3c;}.cd4ef06e-6856-4989-9fa8-f8002fc8edfb{fill:#e1a13f;}.\38 17322a1-437f-411b-bbbf-3194b33bb891{fill:#437b7b;}.b8008022-2063-41ba-92d8-2cdc1b8697f0{fill:#4a8787;}.\33 6847c3b-51a8-48d1-8fab-2cc5e096cd2d{fill:#4e8f8f;}.ee6a7061-11e3-42a1-b18c-bf3374eeeeb9{fill:#58a2a3;}.\36 69d03f0-b4fb-42ce-a36b-970eba77db49{fill:#5ba8a9;}.b871a71e-b149-4a13-aa8b-8fbf73cbcbbd{fill:#76b8b2;}.f3529450-8264-43eb-9131-7bf46db4c0be{fill:#7bbab2;}.\34 1b8c2e5-4bf2-4b54-91e8-0a2764f2f851{fill:#732319;}.ff71ec2f-f65c-4171-a13e-b17f49afda40{fill:#80251d;}.\37 c051292-418e-4dec-82cc-66085503d10b{fill:#962922;}.\34 ad83a0a-3d56-4d20-90da-4768288809ba{fill:#a92c27;}.cdb9234b-3032-4353-8adf-186087c1506e{fill:#b62e2a;}.\34 cce059e-e36c-47ad-a9b4-6ed442ae8c44{fill:#bf3938;}.\32 4add9ff-6f8b-403a-b536-668e40a2a6cb{fill:#c25c5b;}.cf1da9bc-2cf4-450c-b464-6e3edd0fa158{fill:#415017;}.\34 c85dfe3-b24f-4101-a1ea-6530fa101a1a{fill:#6b7f26;}.\33 4067195-d0a2-46ec-bf8f-4fb739b26898{fill:#869e2f;}.fa4205af-3b39-4a01-9dc4-75a9098d3298{fill:#a2c037;}.\36 41b613e-e728-4e40-9db5-e4b742dd16ce{fill:#cad22a;}.\34 10d904a-6188-4274-85bd-59751ded89ff{fill:#dbda22;}.\39 6594220-1d31-44f5-9701-e44a57448cad{fill:#ffed00;}.f8cb8222-60b8-4ca4-aae4-a6e967db54f6{fill:#bdbdbd;}.\33 56b407c-0912-482d-b520-27a8edf11b64{fill:#b5b5b5;}.\36 5fab840-5400-4c42-b133-1a3897063c6d{fill:#212329;}.\32 ed7d56d-45d4-4834-8186-187649ef1f38{fill:#00425c;}.a77b5d49-6d4c-4151-a597-dbf59f179829{opacity:0.5;}.\35 a1e3f8b-69d9-49c9-8dfb-7edbe76885d9{mask:url(#4ff8f0ef-dfae-4ff4-9009-bd7a6d7e4a5f);}.e019f2a1-196e-4cbe-9779-e154b847312d{fill:url(#926607bb-7f1b-4283-b1ca-28740bc8d83b);}.fb2c361f-d142-46ba-8376-35c4ab28544d{opacity:0.2;}.\38 ad9fc71-ada3-4af1-beac-c9671defd68c{filter:url(#e4a85cc4-916c-4a6b-bfe1-c80440c95209);}</style><filter id="e4a85cc4-916c-4a6b-bfe1-c80440c95209" x="33.88" y="-8332.08" width="252.44" height="32766" filterUnits="userSpaceOnUse" color-interpolation-filters="sRGB"><feFlood flood-color="#fff" result="bg"/><feBlend in="SourceGraphic" in2="bg"/></filter><mask id="e8e85687-1e4c-4775-9490-a7e4489254d3" x="33.88" y="-8332.08" width="252.44" height="32766" maskUnits="userSpaceOnUse"><g class="8ad9fc71-ada3-4af1-beac-c9671defd68c"/></mask><linearGradient id="df2a9fff-231f-4fd7-b34c-39bec5322c84" x1="33.88" y1="44.26" x2="286.32" y2="44.26" gradientUnits="userSpaceOnUse"><stop offset="0" stop-color="#fff"/><stop offset="1"/></linearGradient><filter id="3c160e4b-dfbf-4a16-b197-c3a357348d90" x="33.88" y="12.25" width="252.44" height="64.02" filterUnits="userSpaceOnUse" color-interpolation-filters="sRGB"><feFlood flood-color="#fff" result="bg"/><feBlend in="SourceGraphic" in2="bg"/></filter><mask id="4ff8f0ef-dfae-4ff4-9009-bd7a6d7e4a5f" x="33.88" y="12.25" width="252.44" height="64.02" maskUnits="userSpaceOnUse"><g class="505a8604-a6bd-4493-9890-a9726ad87963"><path class="8e38dff3-11a8-4d43-b6a6-5fa9fbe06e14" d="M33.88,12.25Q58.93,43.2,84,74.15c1,1.17,3.72,2.12,6.21,2.12H276.72c5.56,0,8.63-1.45,9.6-2.62Z"/></g></mask><linearGradient id="926607bb-7f1b-4283-b1ca-28740bc8d83b" x1="33.88" y1="44.26" x2="286.32" y2="44.26" gradientUnits="userSpaceOnUse"><stop offset="0" stop-color="#fff"/><stop offset="1" stop-color="#fff"/></linearGradient></defs><title>mobile_home</title><g class="8ab66d47-c600-4bba-a95e-8c0eede99b00"><g id="cd79bc8f-6945-4f09-98ef-14ad7e146138" data-name="Layer 2"><g id="4470db9b-bb78-4917-b4e2-22bed606bcf5" data-name="Capa 1"><path class="541ecaba-6e36-47b5-9612-ce2ffd870a1c" d="M385.9,166.35l-67.08-46.89-52,74.33ZM354,159.26l-56.26,13,24.55-35.13Z"/><polygon class="58d14451-62b1-4c84-a650-0303463b0da8" points="323.52 125.8 323.2 125.58 324.63 123.53 324.95 123.75 323.52 125.8"/><polygon class="58d14451-62b1-4c84-a650-0303463b0da8" points="319.85 124.87 319.52 124.64 321.73 121.49 322.05 121.72 319.85 124.87"/><polygon class="58d14451-62b1-4c84-a650-0303463b0da8" points="325.66 128.93 325.34 128.7 327.54 125.55 327.86 125.78 325.66 128.93"/><rect class="58d14451-62b1-4c84-a650-0303463b0da8" x="320.95" y="122.78" width="2.11" height="0.39" transform="translate(36.97 316.8) rotate(-55.12)"/><polygon class="58d14451-62b1-4c84-a650-0303463b0da8" points="322.3 124.47 321.98 124.25 323.19 122.52 323.51 122.74 322.3 124.47"/><rect class="58d14451-62b1-4c84-a650-0303463b0da8" x="322.43" y="123.82" width="2.11" height="0.39" transform="translate(36.46 318.01) rotate(-55.03)"/><polygon class="58d14451-62b1-4c84-a650-0303463b0da8" points="324.46 125.98 324.14 125.75 325.35 124.02 325.67 124.25 324.46 125.98"/><polygon class="58d14451-62b1-4c84-a650-0303463b0da8" points="325.19 126.49 324.88 126.27 326.08 124.54 326.4 124.76 325.19 126.49"/><polygon class="58d14451-62b1-4c84-a650-0303463b0da8" points="325.94 127.01 325.61 126.79 326.82 125.06 327.15 125.28 325.94 127.01"/><rect class="58d14451-62b1-4c84-a650-0303463b0da8" x="317.01" y="120.41" width="2.5" height="0.39" transform="translate(37.08 312.36) rotate(-55.05)"/><polygon class="58d14451-62b1-4c84-a650-0303463b0da8" points="319.85 124.87 319.52 124.64 321.73 121.49 322.05 121.72 319.85 124.87"/><rect class="58d14451-62b1-4c84-a650-0303463b0da8" x="318.03" y="120.74" width="2.11" height="0.39" transform="translate(37.89 314.26) rotate(-55.26)"/><polygon class="58d14451-62b1-4c84-a650-0303463b0da8" points="319.39 122.43 319.06 122.21 320.27 120.48 320.6 120.7 319.39 122.43"/><polygon class="58d14451-62b1-4c84-a650-0303463b0da8" points="320.13 122.95 319.8 122.73 321.01 121 321.34 121.22 320.13 122.95"/><rect class="58d14451-62b1-4c84-a650-0303463b0da8" x="328.67" y="128.55" width="2.5" height="0.39" transform="translate(34.97 324.77) rotate(-54.93)"/><rect class="58d14451-62b1-4c84-a650-0303463b0da8" x="330.52" y="131.13" width="3.84" height="0.39" transform="translate(34.34 328.56) rotate(-55.05)"/><rect class="58d14451-62b1-4c84-a650-0303463b0da8" x="326.79" y="126.87" width="2.11" height="0.39" transform="translate(35.87 322.97) rotate(-55.05)"/><polygon class="58d14451-62b1-4c84-a650-0303463b0da8" points="328.14 128.56 327.82 128.33 329.04 126.6 329.36 126.83 328.14 128.56"/><rect class="58d14451-62b1-4c84-a650-0303463b0da8" x="328.27" y="127.9" width="2.11" height="0.39" transform="translate(35.94 325.05) rotate(-55.13)"/><polygon class="58d14451-62b1-4c84-a650-0303463b0da8" points="330.3 130.06 329.98 129.84 331.19 128.11 331.51 128.33 330.3 130.06"/><polygon class="58d14451-62b1-4c84-a650-0303463b0da8" points="331.04 130.58 330.72 130.36 331.93 128.63 332.25 128.85 331.04 130.58"/><polygon class="58d14451-62b1-4c84-a650-0303463b0da8" points="331.78 131.1 331.46 130.88 332.67 129.14 332.99 129.37 331.78 131.1"/><polygon class="58d14451-62b1-4c84-a650-0303463b0da8" points="335.21 133.98 334.89 133.75 336.33 131.7 336.65 131.92 335.21 133.98"/><rect class="58d14451-62b1-4c84-a650-0303463b0da8" x="336.37" y="135.22" width="3.84" height="0.39" transform="translate(33.07 334.46) rotate(-54.93)"/><polygon class="58d14451-62b1-4c84-a650-0303463b0da8" points="333.25 132.13 332.93 131.9 334.14 130.17 334.46 130.4 333.25 132.13"/><rect class="58d14451-62b1-4c84-a650-0303463b0da8" x="333.38" y="131.47" width="2.11" height="0.39" transform="translate(35.71 331.53) rotate(-55.27)"/><rect class="58d14451-62b1-4c84-a650-0303463b0da8" x="334.12" y="131.99" width="2.11" height="0.39" transform="translate(34.51 330.72) rotate(-54.96)"/><polygon class="58d14451-62b1-4c84-a650-0303463b0da8" points="336.15 134.15 335.83 133.93 337.04 132.19 337.36 132.42 336.15 134.15"/><polygon class="58d14451-62b1-4c84-a650-0303463b0da8" points="336.89 134.67 336.57 134.45 337.78 132.71 338.1 132.94 336.89 134.67"/><polygon class="58d14451-62b1-4c84-a650-0303463b0da8" points="337.63 135.19 337.31 134.96 338.52 133.23 338.84 133.45 337.63 135.19"/><polygon class="58d14451-62b1-4c84-a650-0303463b0da8" points="341.06 138.06 340.74 137.84 342.17 135.79 342.49 136.01 341.06 138.06"/><polygon class="58d14451-62b1-4c84-a650-0303463b0da8" points="343.2 141.19 342.88 140.96 345.08 137.82 345.4 138.04 343.2 141.19"/><polygon class="58d14451-62b1-4c84-a650-0303463b0da8" points="339.1 136.21 338.78 135.99 339.99 134.26 340.31 134.48 339.1 136.21"/><rect class="58d14451-62b1-4c84-a650-0303463b0da8" x="339.23" y="135.56" width="2.11" height="0.39" transform="translate(33.64 336.23) rotate(-54.93)"/><rect class="58d14451-62b1-4c84-a650-0303463b0da8" x="339.97" y="136.07" width="2.11" height="0.39" transform="translate(33.92 337.66) rotate(-55.04)"/><polygon class="58d14451-62b1-4c84-a650-0303463b0da8" points="342 138.24 341.67 138.01 342.88 136.28 343.21 136.51 342 138.24"/><polygon class="58d14451-62b1-4c84-a650-0303463b0da8" points="342.74 138.76 342.42 138.53 343.63 136.8 343.95 137.02 342.74 138.76"/><polygon class="58d14451-62b1-4c84-a650-0303463b0da8" points="343.48 139.27 343.15 139.05 344.36 137.32 344.69 137.54 343.48 139.27"/><polygon class="58d14451-62b1-4c84-a650-0303463b0da8" points="346.9 142.15 346.59 141.93 348.02 139.87 348.34 140.1 346.9 142.15"/><rect class="58d14451-62b1-4c84-a650-0303463b0da8" x="348.06" y="143.39" width="3.84" height="0.39" transform="translate(32.9 349.9) rotate(-55.36)"/><rect class="58d14451-62b1-4c84-a650-0303463b0da8" x="344.33" y="139.13" width="2.11" height="0.39" transform="translate(34.47 344.34) rotate(-55.37)"/><rect class="58d14451-62b1-4c84-a650-0303463b0da8" x="345.07" y="139.65" width="2.11" height="0.39" transform="matrix(0.57, -0.82, 0.82, 0.57, 33.42, 343.74)"/><rect class="58d14451-62b1-4c84-a650-0303463b0da8" x="345.81" y="140.16" width="2.11" height="0.39" transform="translate(33.1 344.24) rotate(-55.05)"/><rect class="58d14451-62b1-4c84-a650-0303463b0da8" x="347.23" y="141.15" width="2.11" height="0.39" transform="translate(33.15 346.22) rotate(-55.12)"/><rect class="58d14451-62b1-4c84-a650-0303463b0da8" x="347.97" y="141.67" width="2.11" height="0.39" transform="translate(32.79 346.65) rotate(-55.05)"/><polygon class="58d14451-62b1-4c84-a650-0303463b0da8" points="349.32 143.36 349 143.13 350.21 141.4 350.53 141.63 349.32 143.36"/><rect class="58d14451-62b1-4c84-a650-0303463b0da8" x="352.06" y="144.9" width="2.5" height="0.39" transform="translate(30.93 349.92) rotate(-54.76)"/><polygon class="58d14451-62b1-4c84-a650-0303463b0da8" points="354.89 149.36 354.57 149.14 356.77 145.99 357.09 146.21 354.89 149.36"/><rect class="58d14451-62b1-4c84-a650-0303463b0da8" x="350.18" y="143.22" width="2.11" height="0.39" transform="translate(31.13 347.04) rotate(-54.67)"/><polygon class="58d14451-62b1-4c84-a650-0303463b0da8" points="351.53 144.91 351.21 144.68 352.42 142.95 352.74 143.18 351.53 144.91"/><rect class="58d14451-62b1-4c84-a650-0303463b0da8" x="351.66" y="144.25" width="2.11" height="0.39" transform="translate(31.39 349.44) rotate(-54.81)"/><rect class="58d14451-62b1-4c84-a650-0303463b0da8" x="353.08" y="145.24" width="2.11" height="0.39" transform="translate(31.74 351.89) rotate(-54.96)"/><rect class="58d14451-62b1-4c84-a650-0303463b0da8" x="353.82" y="145.76" width="2.11" height="0.39" transform="translate(32.18 353.58) rotate(-55.11)"/><rect class="58d14451-62b1-4c84-a650-0303463b0da8" x="354.56" y="146.27" width="2.11" height="0.39" transform="translate(31.82 354.01) rotate(-55.05)"/><rect class="58d14451-62b1-4c84-a650-0303463b0da8" x="357.9" y="148.99" width="2.5" height="0.39" transform="translate(30.5 357.11) rotate(-54.88)"/><polygon class="58d14451-62b1-4c84-a650-0303463b0da8" points="360.74 153.45 360.42 153.23 362.62 150.08 362.94 150.3 360.74 153.45"/><polygon class="58d14451-62b1-4c84-a650-0303463b0da8" points="356.64 148.47 356.32 148.25 357.53 146.52 357.85 146.74 356.64 148.47"/><polygon class="58d14451-62b1-4c84-a650-0303463b0da8" points="357.38 148.99 357.06 148.77 358.27 147.04 358.59 147.26 357.38 148.99"/><rect class="58d14451-62b1-4c84-a650-0303463b0da8" x="357.51" y="148.34" width="2.11" height="0.39" transform="translate(31.65 357.71) rotate(-55.11)"/><polygon class="58d14451-62b1-4c84-a650-0303463b0da8" points="359.54 150.5 359.21 150.28 360.42 148.54 360.75 148.77 359.54 150.5"/><rect class="58d14451-62b1-4c84-a650-0303463b0da8" x="359.66" y="149.84" width="2.11" height="0.39" transform="translate(31.08 359.72) rotate(-55.05)"/><rect class="58d14451-62b1-4c84-a650-0303463b0da8" x="360.4" y="150.36" width="2.11" height="0.39" transform="translate(30.97 360.55) rotate(-55.05)"/><polygon class="58d14451-62b1-4c84-a650-0303463b0da8" points="364.45 154.41 364.13 154.19 365.56 152.13 365.88 152.36 364.45 154.41"/><polygon class="58d14451-62b1-4c84-a650-0303463b0da8" points="366.59 157.53 366.26 157.31 368.46 154.16 368.79 154.39 366.59 157.53"/><polygon class="58d14451-62b1-4c84-a650-0303463b0da8" points="362.48 152.56 362.17 152.34 363.38 150.61 363.69 150.83 362.48 152.56"/><rect class="58d14451-62b1-4c84-a650-0303463b0da8" x="362.61" y="151.9" width="2.11" height="0.39" transform="translate(30.37 362.58) rotate(-54.97)"/><rect class="58d14451-62b1-4c84-a650-0303463b0da8" x="363.36" y="152.42" width="2.11" height="0.39" transform="translate(30.54 363.85) rotate(-55.05)"/><rect class="58d14451-62b1-4c84-a650-0303463b0da8" x="364.77" y="153.41" width="2.11" height="0.39" transform="translate(30.28 365.35) rotate(-55.03)"/><rect class="58d14451-62b1-4c84-a650-0303463b0da8" x="365.51" y="153.93" width="2.11" height="0.39" transform="translate(30.09 366.05) rotate(-55.01)"/><rect class="58d14451-62b1-4c84-a650-0303463b0da8" x="366.25" y="154.45" width="2.11" height="0.39" transform="translate(30.31 367.39) rotate(-55.1)"/><polygon class="58d14451-62b1-4c84-a650-0303463b0da8" points="370.29 158.5 369.97 158.27 371.41 156.22 371.73 156.44 370.29 158.5"/><polygon class="58d14451-62b1-4c84-a650-0303463b0da8" points="372.43 161.62 372.11 161.4 374.31 158.25 374.63 158.47 372.43 161.62"/><rect class="58d14451-62b1-4c84-a650-0303463b0da8" x="367.72" y="155.47" width="2.11" height="0.39" transform="translate(29.87 368.68) rotate(-55.04)"/><polygon class="58d14451-62b1-4c84-a650-0303463b0da8" points="369.07 157.17 368.75 156.94 369.96 155.21 370.29 155.44 369.07 157.17"/><rect class="58d14451-62b1-4c84-a650-0303463b0da8" x="369.2" y="156.51" width="2.11" height="0.39" transform="translate(30.87 372.26) rotate(-55.36)"/><rect class="58d14451-62b1-4c84-a650-0303463b0da8" x="370.62" y="157.5" width="2.11" height="0.39" transform="translate(29.48 371.97) rotate(-55.05)"/><rect class="58d14451-62b1-4c84-a650-0303463b0da8" x="371.36" y="158.02" width="2.11" height="0.39" transform="translate(29.66 373.25) rotate(-55.12)"/><polygon class="58d14451-62b1-4c84-a650-0303463b0da8" points="372.71 159.71 372.39 159.48 373.6 157.75 373.92 157.98 372.71 159.71"/><rect class="58d14451-62b1-4c84-a650-0303463b0da8" x="375.44" y="161.25" width="2.5" height="0.39" transform="translate(29.1 378.57) rotate(-55.19)"/><polygon class="58d14451-62b1-4c84-a650-0303463b0da8" points="378.28 165.71 377.96 165.49 380.16 162.34 380.48 162.56 378.28 165.71"/><polygon class="58d14451-62b1-4c84-a650-0303463b0da8" points="374.18 160.74 373.86 160.51 375.07 158.78 375.39 159 374.18 160.74"/><polygon class="58d14451-62b1-4c84-a650-0303463b0da8" points="374.92 161.25 374.6 161.03 375.81 159.3 376.13 159.52 374.92 161.25"/><polygon class="58d14451-62b1-4c84-a650-0303463b0da8" points="375.66 161.77 375.34 161.54 376.55 159.81 376.87 160.04 375.66 161.77"/><polygon class="58d14451-62b1-4c84-a650-0303463b0da8" points="377.07 162.76 376.75 162.53 377.97 160.81 378.29 161.03 377.07 162.76"/><polygon class="58d14451-62b1-4c84-a650-0303463b0da8" points="377.82 163.28 377.5 163.05 378.7 161.32 379.02 161.54 377.82 163.28"/><rect class="58d14451-62b1-4c84-a650-0303463b0da8" x="377.94" y="162.62" width="2.11" height="0.39" transform="translate(28.37 380.09) rotate(-55.03)"/><rect class="58d14451-62b1-4c84-a650-0303463b0da8" x="379.39" y="163.66" width="2.11" height="0.32" transform="translate(28.11 381.63) rotate(-55.02)"/><path class="58d14451-62b1-4c84-a650-0303463b0da8" d="M318,126.88l.82-1.17-.2-.14.11-.16a.46.46,0,0,0,.21,0,.31.31,0,0,0,.19-.06l.16.11L318.23,127Z"/><path class="58d14451-62b1-4c84-a650-0303463b0da8" d="M324.4,129.72a.57.57,0,0,1,.35-.25.42.42,0,0,1,.33.09.43.43,0,0,1,.18.29.45.45,0,0,1-.08.34.84.84,0,0,1-.28.25,1.66,1.66,0,0,1-.37.15l-.23.09-.08,0-.13.06h0l.45.32-.16.22-.73-.51.15-.21.11,0,.1,0,.12,0,.33-.12a2.27,2.27,0,0,0,.34-.15A.53.53,0,0,0,325,130a.19.19,0,0,0,.05-.14.18.18,0,0,0-.29-.12.27.27,0,0,0-.07.08l0,.06-.23-.16Z"/><path class="58d14451-62b1-4c84-a650-0303463b0da8" d="M329.83,134.82a.16.16,0,0,0,.26,0l.06-.09a.26.26,0,0,0-.08-.41l.14-.2a.28.28,0,0,0,.25.07.32.32,0,0,0,.18-.15l0,0a.15.15,0,0,0,0-.24.14.14,0,0,0-.14,0,.24.24,0,0,0-.1.1l0,0-.23-.16,0,0a.5.5,0,0,1,.26-.2.42.42,0,0,1,.53.35.44.44,0,0,1-.08.31l-.05.07a.45.45,0,0,1-.25.18.36.36,0,0,1-.14,0,.41.41,0,0,1,0,.45l-.08.12a.45.45,0,0,1-.31.19.46.46,0,0,1-.34-.08.41.41,0,0,1-.18-.29.43.43,0,0,1,.07-.33l0,0,.23.13,0,.06a.14.14,0,0,0,0,.12A.14.14,0,0,0,329.83,134.82Z"/><path class="58d14451-62b1-4c84-a650-0303463b0da8" d="M335.73,138.44l1.09-.68.23.16-.68,1,.15.1-.16.23-.15-.1-.23.33-.23-.16L336,139l-.41-.29Zm.41.29.33-.48-.52.34Z"/><path class="58d14451-62b1-4c84-a650-0303463b0da8" d="M342.17,141.85l-.23.32h.15a.18.18,0,0,1,.09,0,.31.31,0,0,1,.15.26.61.61,0,0,1-.12.3l-.23.33a.46.46,0,0,1-.3.2.4.4,0,0,1-.33-.08.41.41,0,0,1-.18-.28.48.48,0,0,1,.09-.32l0,0,.23.14,0,.05a.17.17,0,0,0,0,.18l0,0a.15.15,0,0,0,.24-.05l.26-.38a.17.17,0,0,0,0-.14.15.15,0,0,0-.05-.07.15.15,0,0,0-.13,0,.18.18,0,0,0-.08.07l0,0-.23-.16.58-.83.67.47-.16.23Z"/><path class="58d14451-62b1-4c84-a650-0303463b0da8" d="M348.23,146.3l0,0a.19.19,0,0,0,0-.12.12.12,0,0,0-.06-.1.14.14,0,0,0-.11,0,.14.14,0,0,0-.09.08l-.21.3a.34.34,0,0,1,.22.05.32.32,0,0,1,.15.27.58.58,0,0,1-.11.3l-.18.26h0a.49.49,0,0,1-.28.17.38.38,0,0,1-.31-.07.37.37,0,0,1-.17-.28.41.41,0,0,1,.08-.32l.58-.84a.44.44,0,0,1,.44-.19.46.46,0,0,1,.16.07.39.39,0,0,1,.17.29.42.42,0,0,1-.08.32l0,0Zm-.79.64a.23.23,0,0,0,0,.11.14.14,0,0,0,.17.12.13.13,0,0,0,.09-.07l.2-.28a.21.21,0,0,0,0-.15.13.13,0,0,0,0-.06.12.12,0,0,0-.13,0,.27.27,0,0,0-.08.07Z"/><path class="58d14451-62b1-4c84-a650-0303463b0da8" d="M354.58,150.18l-.17.23-1.22,1.07-.23-.16,1.23-1.07-.47-.33.17-.23Z"/><path class="58d14451-62b1-4c84-a650-0303463b0da8" d="M359.69,155.51a.41.41,0,0,1-.29.18.44.44,0,0,1-.33-.08h0a.41.41,0,0,1-.19-.29A.43.43,0,0,1,359,155l.09-.13a.41.41,0,0,1,.27-.18.33.33,0,0,1,.14,0,.38.38,0,0,1,0-.26.43.43,0,0,1,.07-.16l.06-.08a.48.48,0,0,1,.26-.19.42.42,0,0,1,.34.07h0a.4.4,0,0,1,.1.6l-.06.08a.37.37,0,0,1-.25.18h-.13a.38.38,0,0,1,0,.28.41.41,0,0,1-.07.17Zm-.15-.27a.33.33,0,0,0,.07-.23l-.07-.08a.17.17,0,0,0-.18,0,.44.44,0,0,0-.11.12l-.05.07a.21.21,0,0,0,0,.15.16.16,0,0,0,.07.11.18.18,0,0,0,.2,0,.17.17,0,0,0,.06-.06Zm.47-.67c.08-.1.09-.19,0-.26a.1.1,0,0,0,0-.05.19.19,0,0,0-.12,0,.25.25,0,0,0-.09,0l-.09.1a.35.35,0,0,0-.06.17.15.15,0,0,0,.07.14.17.17,0,0,0,.17,0A.34.34,0,0,0,360,154.57Z"/><path class="58d14451-62b1-4c84-a650-0303463b0da8" d="M366,158.1a.39.39,0,0,1,.17.29.42.42,0,0,1-.08.32l-.58.83a.42.42,0,0,1-.28.19.37.37,0,0,1-.32-.07.41.41,0,0,1-.18-.28.48.48,0,0,1,.09-.32l0,0,.24.16,0,0a.13.13,0,0,0,0,.11.12.12,0,0,0,0,.1.12.12,0,0,0,.11,0,.17.17,0,0,0,.1-.07l.21-.31a.27.27,0,0,1-.22,0,.33.33,0,0,1-.15-.27.45.45,0,0,1,.11-.3l.18-.26h0a.48.48,0,0,1,.2-.15.38.38,0,0,1,.24,0A.47.47,0,0,1,366,158.1Zm-.14.46a.19.19,0,0,0,0-.12.12.12,0,0,0-.06-.1.15.15,0,0,0-.11,0,.19.19,0,0,0-.1.08l-.19.28a.14.14,0,0,0,0,.14s0,.05.05.07a.13.13,0,0,0,.17,0s0,0,0,0Z"/><path class="58d14451-62b1-4c84-a650-0303463b0da8" d="M370.21,163.37l.82-1.17-.2-.14.11-.16a.42.42,0,0,0,.4,0l.16.11-1.06,1.52Z"/><path class="58d14451-62b1-4c84-a650-0303463b0da8" d="M371.61,163.84a.45.45,0,0,1-.73-.51l.58-.83a.41.41,0,0,1,.29-.19.43.43,0,0,1,.33.08.39.39,0,0,1,.19.28.43.43,0,0,1-.08.33Zm.35-1a.16.16,0,0,0,0-.12.13.13,0,0,0-.06-.1.14.14,0,0,0-.12,0,.16.16,0,0,0-.11.07l-.58.83a.27.27,0,0,0,0,.12.16.16,0,0,0,.07.11.17.17,0,0,0,.12,0,.2.2,0,0,0,.11-.06Z"/><path class="58d14451-62b1-4c84-a650-0303463b0da8" d="M376.13,167.51l.82-1.17-.2-.14.11-.16a.46.46,0,0,0,.2.05.34.34,0,0,0,.2-.06l.16.12-1.06,1.52Z"/><path class="58d14451-62b1-4c84-a650-0303463b0da8" d="M376.74,167.94l.82-1.17-.2-.14.12-.16a.42.42,0,0,0,.2.05.36.36,0,0,0,.2-.06l.16.12L377,168.1Z"/><path class="58c686c0-3d7c-43b5-8aae-fc6d660414a6" d="M367.39,162.6l-46.73-32.66-36.2,51.78ZM354,159.26l-56.26,13,24.55-35.13Z"/><path class="58c686c0-3d7c-43b5-8aae-fc6d660414a6" d="M75.87,289.08l23.28,5a4.88,4.88,0,0,0,5.8-3.75l25.13-117.13a4.89,4.89,0,0,0-3.76-5.8l-23.27-5a4.89,4.89,0,0,0-5.81,3.75L72.11,283.28A4.9,4.9,0,0,0,75.87,289.08Z"/><path class="9257f10e-ccfc-47a9-a7cd-a3a09b993c93" d="M94.55,165.57a4.87,4.87,0,0,1,5.8-3.75l23.28,5a4.89,4.89,0,0,1,3.75,5.81L102.25,289.74a4.89,4.89,0,0,1-5.8,3.76l-23.28-5a4.87,4.87,0,0,1-3.75-5.8Z"/><rect class="c6a27e3d-7671-4991-8507-ed4b8e6ad27c" x="80.9" y="267.16" width="12.03" height="28.07" transform="translate(-206.26 307.16) rotate(-77.89)"/><polygon class="58c686c0-3d7c-43b5-8aae-fc6d660414a6" points="99.37 290.02 101.9 278.26 74.45 272.37 99.37 290.02"/><rect class="2a8bfcc2-c505-46da-b258-7fa5a677dcfd" x="84.06" y="252.44" width="12.03" height="28.07" transform="translate(-189.37 298.65) rotate(-77.89)"/><polygon class="58c686c0-3d7c-43b5-8aae-fc6d660414a6" points="102.53 275.3 105.06 263.54 77.61 257.65 102.53 275.3"/><rect class="7eeed9b0-cd23-43c5-bc0d-1dd8f6d48c97" x="87.22" y="237.72" width="12.03" height="28.07" transform="translate(-172.48 290.1) rotate(-77.89)"/><polygon class="58c686c0-3d7c-43b5-8aae-fc6d660414a6" points="105.69 260.58 108.21 248.82 80.77 242.93 105.69 260.58"/><rect class="cd4ef06e-6856-4989-9fa8-f8002fc8edfb" x="90.37" y="223" width="12.03" height="28.07" transform="translate(-155.59 281.55) rotate(-77.89)"/><polygon class="58c686c0-3d7c-43b5-8aae-fc6d660414a6" points="108.85 245.86 111.37 234.1 83.93 228.21 108.85 245.86"/><rect class="541ecaba-6e36-47b5-9612-ce2ffd870a1c" x="93.53" y="208.28" width="12.03" height="28.07" transform="translate(-138.7 273.02) rotate(-77.89)"/><polygon class="58c686c0-3d7c-43b5-8aae-fc6d660414a6" points="112.01 231.14 114.53 219.38 87.09 213.49 112.01 231.14"/><rect class="541ecaba-6e36-47b5-9612-ce2ffd870a1c" x="96.69" y="193.56" width="12.03" height="28.07" transform="matrix(0.21, -0.98, 0.98, 0.21, -121.81, 264.46)"/><polygon class="58c686c0-3d7c-43b5-8aae-fc6d660414a6" points="115.17 216.42 117.69 204.66 90.25 198.77 115.17 216.42"/><rect class="541ecaba-6e36-47b5-9612-ce2ffd870a1c" x="99.85" y="178.84" width="12.03" height="28.07" transform="translate(-104.93 255.92) rotate(-77.89)"/><polygon class="58c686c0-3d7c-43b5-8aae-fc6d660414a6" points="118.32 201.7 120.84 189.94 93.4 184.05 118.32 201.7"/><path class="58c686c0-3d7c-43b5-8aae-fc6d660414a6" d="M54.57,277.87l22,9.06A4.89,4.89,0,0,0,83,284.26l45.58-110.78a4.87,4.87,0,0,0-2.66-6.37l-22-9.06a4.89,4.89,0,0,0-6.38,2.66L51.91,271.49A4.89,4.89,0,0,0,54.57,277.87Z"/><path class="9257f10e-ccfc-47a9-a7cd-a3a09b993c93" d="M94.94,159.66a4.88,4.88,0,0,1,6.38-2.66l22,9.06a4.88,4.88,0,0,1,2.66,6.38L80.41,283.22A4.9,4.9,0,0,1,74,285.88l-22-9.06a4.89,4.89,0,0,1-2.66-6.38Z"/><rect class="817322a1-437f-411b-bbbf-3194b33bb891" x="60.83" y="258.04" width="12.03" height="28.07" transform="translate(-210.21 230.38) rotate(-67.64)"/><polygon class="58c686c0-3d7c-43b5-8aae-fc6d660414a6" points="77.53 282.98 82.11 271.86 56.15 261.18 77.53 282.98"/><rect class="b8008022-2063-41ba-92d8-2cdc1b8697f0" x="66.55" y="244.12" width="12.03" height="28.07" transform="translate(-193.78 227.03) rotate(-67.63)"/><polygon class="58c686c0-3d7c-43b5-8aae-fc6d660414a6" points="83.26 269.06 87.84 257.93 61.88 247.25 83.26 269.06"/><rect class="36847c3b-51a8-48d1-8fab-2cc5e096cd2d" x="72.28" y="230.2" width="12.03" height="28.07" transform="translate(-177.36 223.73) rotate(-67.64)"/><polygon class="58c686c0-3d7c-43b5-8aae-fc6d660414a6" points="88.99 255.13 93.57 244.01 67.61 233.33 88.99 255.13"/><rect class="ee6a7061-11e3-42a1-b18c-bf3374eeeeb9" x="78.01" y="216.27" width="12.03" height="28.07" transform="translate(-160.93 220.39) rotate(-67.64)"/><polygon class="58c686c0-3d7c-43b5-8aae-fc6d660414a6" points="94.71 241.21 99.29 230.08 73.34 219.41 94.71 241.21"/><rect class="669d03f0-b4fb-42ce-a36b-970eba77db49" x="83.74" y="202.35" width="12.03" height="28.07" transform="translate(-144.5 217.07) rotate(-67.64)"/><polygon class="58c686c0-3d7c-43b5-8aae-fc6d660414a6" points="100.44 227.28 105.02 216.16 79.06 205.48 100.44 227.28"/><rect class="b871a71e-b149-4a13-aa8b-8fbf73cbcbbd" x="89.47" y="188.43" width="12.03" height="28.07" transform="translate(-128.08 213.74) rotate(-67.64)"/><polygon class="58c686c0-3d7c-43b5-8aae-fc6d660414a6" points="106.17 213.36 110.75 202.24 84.79 191.56 106.17 213.36"/><rect class="f3529450-8264-43eb-9131-7bf46db4c0be" x="95.2" y="174.5" width="12.03" height="28.07" transform="translate(-111.65 210.4) rotate(-67.64)"/><polygon class="58c686c0-3d7c-43b5-8aae-fc6d660414a6" points="111.9 199.44 116.48 188.31 90.52 177.63 111.9 199.44"/><path class="58c686c0-3d7c-43b5-8aae-fc6d660414a6" d="M23.5,255.24l19,14.39a4.88,4.88,0,0,0,6.85-.93l72.45-95.4a4.89,4.89,0,0,0-.94-6.85l-19-14.4A4.89,4.89,0,0,0,95,153l-72.44,95.4A4.88,4.88,0,0,0,23.5,255.24Z"/><path class="9257f10e-ccfc-47a9-a7cd-a3a09b993c93" d="M92.82,151.32a4.89,4.89,0,0,1,6.85-.94l19,14.4a4.89,4.89,0,0,1,.94,6.85L47.11,267a4.88,4.88,0,0,1-6.84.94l-19-14.4a4.89,4.89,0,0,1-.94-6.85Z"/><rect class="41b8c2e5-4bf2-4b54-91e8-0a2764f2f851" x="30.83" y="238.75" width="12.03" height="28.07" transform="translate(-186.76 129.26) rotate(-52.79)"/><polygon class="58c686c0-3d7c-43b5-8aae-fc6d660414a6" points="44.39 266.06 51.66 256.48 29.31 239.51 44.39 266.06"/><rect class="ff71ec2f-f65c-4171-a13e-b17f49afda40" x="39.94" y="226.76" width="12.03" height="28.07" transform="translate(-173.61 131.77) rotate(-52.79)"/><polygon class="58c686c0-3d7c-43b5-8aae-fc6d660414a6" points="53.49 254.07 60.77 244.49 38.42 227.52 53.49 254.07"/><rect class="7c051292-418e-4dec-82cc-66085503d10b" x="49.04" y="214.77" width="12.03" height="28.07" transform="translate(-160.45 134.26) rotate(-52.78)"/><polygon class="58c686c0-3d7c-43b5-8aae-fc6d660414a6" points="62.6 242.08 69.88 232.5 47.52 215.53 62.6 242.08"/><rect class="4ad83a0a-3d56-4d20-90da-4768288809ba" x="58.15" y="202.78" width="12.03" height="28.07" transform="translate(-147.31 136.78) rotate(-52.78)"/><polygon class="58c686c0-3d7c-43b5-8aae-fc6d660414a6" points="71.7 230.09 78.98 220.51 56.63 203.53 71.7 230.09"/><rect class="cdb9234b-3032-4353-8adf-186087c1506e" x="67.26" y="190.79" width="12.03" height="28.07" transform="translate(-134.17 139.32) rotate(-52.79)"/><polygon class="58c686c0-3d7c-43b5-8aae-fc6d660414a6" points="80.81 218.1 88.09 208.52 65.73 191.55 80.81 218.1"/><rect class="4cce059e-e36c-47ad-a9b4-6ed442ae8c44" x="76.36" y="178.8" width="12.03" height="28.07" transform="translate(-121.01 141.8) rotate(-52.78)"/><polygon class="58c686c0-3d7c-43b5-8aae-fc6d660414a6" points="89.92 206.11 97.19 196.53 74.84 179.56 89.92 206.11"/><rect class="24add9ff-6f8b-403a-b536-668e40a2a6cb" x="85.47" y="166.81" width="12.03" height="28.07" transform="translate(-107.87 144.33) rotate(-52.79)"/><polygon class="58c686c0-3d7c-43b5-8aae-fc6d660414a6" points="99.02 194.12 106.3 184.54 83.94 167.57 99.02 194.12"/><path class="58c686c0-3d7c-43b5-8aae-fc6d660414a6" d="M2.87,229,18,247.32a4.89,4.89,0,0,0,6.88.67l92.47-76.16A4.89,4.89,0,0,0,118,165l-15.13-18.38a4.89,4.89,0,0,0-6.88-.66L3.53,222.07A4.89,4.89,0,0,0,2.87,229Z"/><path class="9257f10e-ccfc-47a9-a7cd-a3a09b993c93" d="M94.24,143.78a4.88,4.88,0,0,1,6.88.67l15.14,18.37a4.89,4.89,0,0,1-.67,6.88L23.13,245.86a4.89,4.89,0,0,1-6.88-.66L1.11,226.82a4.9,4.9,0,0,1,.67-6.88Z"/><rect class="cf1da9bc-2cf4-450c-b464-6e3edd0fa158" x="10.41" y="215.6" width="12.03" height="28.07" transform="translate(-142.25 62.82) rotate(-39.48)"/><polygon class="58c686c0-3d7c-43b5-8aae-fc6d660414a6" points="20.7 244.29 29.99 236.65 12.14 214.98 20.7 244.29"/><rect class="4c85dfe3-b24f-4101-a1ea-6530fa101a1a" x="22.03" y="206.03" width="12.03" height="28.07" transform="translate(-133.51 68.03) rotate(-39.48)"/><polygon class="58c686c0-3d7c-43b5-8aae-fc6d660414a6" points="32.32 234.72 41.61 227.07 23.76 205.4 32.32 234.72"/><rect class="34067195-d0a2-46ec-bf8f-4fb739b26898" x="33.65" y="196.46" width="12.03" height="28.07" transform="translate(-124.77 73.23) rotate(-39.48)"/><polygon class="58c686c0-3d7c-43b5-8aae-fc6d660414a6" points="43.94 225.15 53.23 217.5 35.38 195.83 43.94 225.15"/><rect class="fa4205af-3b39-4a01-9dc4-75a9098d3298" x="45.27" y="186.88" width="12.03" height="28.07" transform="matrix(0.77, -0.64, 0.64, 0.77, -116.06, 78.46)"/><polygon class="58c686c0-3d7c-43b5-8aae-fc6d660414a6" points="55.56 215.58 64.85 207.93 47 186.26 55.56 215.58"/><rect class="641b613e-e728-4e40-9db5-e4b742dd16ce" x="56.89" y="177.31" width="12.03" height="28.07" transform="translate(-107.3 83.64) rotate(-39.48)"/><polygon class="58c686c0-3d7c-43b5-8aae-fc6d660414a6" points="67.19 206 76.47 198.35 58.63 176.69 67.19 206"/><rect class="410d904a-6188-4274-85bd-59751ded89ff" x="68.51" y="167.74" width="12.03" height="28.07" transform="translate(-98.56 88.84) rotate(-39.48)"/><polygon class="58c686c0-3d7c-43b5-8aae-fc6d660414a6" points="78.81 196.43 88.09 188.78 70.25 167.12 78.81 196.43"/><rect class="96594220-1d31-44f5-9701-e44a57448cad" x="80.13" y="158.17" width="12.03" height="28.07" transform="translate(-89.83 94.05) rotate(-39.48)"/><polygon class="58c686c0-3d7c-43b5-8aae-fc6d660414a6" points="90.43 186.86 99.71 179.21 81.87 157.54 90.43 186.86"/><path class="9257f10e-ccfc-47a9-a7cd-a3a09b993c93" d="M290.57,178.62a7.77,7.77,0,0,1-8,7.54H89.84a7.77,7.77,0,0,1-8-7.54V83.05a7.76,7.76,0,0,1,8-7.54H282.59a7.76,7.76,0,0,1,8,7.54Z"/><path class="f8cb8222-60b8-4ca4-aae4-a6e967db54f6" d="M283.55,143.47a6.61,6.61,0,0,1-6.79,6.4H95.66a6.6,6.6,0,0,1-6.77-6.4V88.57a6.6,6.6,0,0,1,6.77-6.4h181.1a6.61,6.61,0,0,1,6.79,6.4Z"/><path class="9257f10e-ccfc-47a9-a7cd-a3a09b993c93" d="M109.48,96.8a.68.68,0,0,1-.7.66H100.2a.68.68,0,0,1-.71-.66V88.74a.68.68,0,0,1,.71-.66h8.58a.68.68,0,0,1,.7.66Z"/><path class="9257f10e-ccfc-47a9-a7cd-a3a09b993c93" d="M121.16,96.8a.68.68,0,0,1-.71.66h-8.58a.69.69,0,0,1-.71-.66V88.74a.68.68,0,0,1,.71-.66h8.58a.68.68,0,0,1,.71.66Z"/><path class="9257f10e-ccfc-47a9-a7cd-a3a09b993c93" d="M132.84,96.8a.69.69,0,0,1-.71.66h-8.58a.69.69,0,0,1-.71-.66V88.74a.68.68,0,0,1,.71-.66h8.58a.68.68,0,0,1,.71.66Z"/><path class="9257f10e-ccfc-47a9-a7cd-a3a09b993c93" d="M144.51,96.8a.68.68,0,0,1-.7.66h-8.59a.68.68,0,0,1-.7-.66V88.74a.68.68,0,0,1,.7-.66h8.59a.68.68,0,0,1,.7.66Z"/><path class="9257f10e-ccfc-47a9-a7cd-a3a09b993c93" d="M156.19,96.8a.69.69,0,0,1-.71.66H146.9a.69.69,0,0,1-.71-.66V88.74a.68.68,0,0,1,.71-.66h8.58a.68.68,0,0,1,.71.66Z"/><path class="9257f10e-ccfc-47a9-a7cd-a3a09b993c93" d="M167.86,96.8a.68.68,0,0,1-.7.66h-8.58a.68.68,0,0,1-.71-.66V88.74a.68.68,0,0,1,.71-.66h8.58a.68.68,0,0,1,.7.66Z"/><path class="9257f10e-ccfc-47a9-a7cd-a3a09b993c93" d="M179.54,96.8a.69.69,0,0,1-.71.66h-8.58a.69.69,0,0,1-.71-.66V88.74a.68.68,0,0,1,.71-.66h8.58a.68.68,0,0,1,.71.66Z"/><path class="9257f10e-ccfc-47a9-a7cd-a3a09b993c93" d="M191.22,96.8a.69.69,0,0,1-.71.66h-8.59a.69.69,0,0,1-.7-.66V88.74a.68.68,0,0,1,.7-.66h8.59a.68.68,0,0,1,.71.66Z"/><path class="9257f10e-ccfc-47a9-a7cd-a3a09b993c93" d="M202.89,96.8a.69.69,0,0,1-.71.66H193.6a.69.69,0,0,1-.71-.66V88.74a.68.68,0,0,1,.71-.66h8.58a.68.68,0,0,1,.71.66Z"/><path class="9257f10e-ccfc-47a9-a7cd-a3a09b993c93" d="M214.57,96.8a.69.69,0,0,1-.71.66h-8.58a.68.68,0,0,1-.71-.66V88.74a.68.68,0,0,1,.71-.66h8.58a.68.68,0,0,1,.71.66Z"/><path class="9257f10e-ccfc-47a9-a7cd-a3a09b993c93" d="M226.24,96.8a.69.69,0,0,1-.71.66H217a.68.68,0,0,1-.7-.66V88.74a.68.68,0,0,1,.7-.66h8.58a.68.68,0,0,1,.71.66Z"/><path class="9257f10e-ccfc-47a9-a7cd-a3a09b993c93" d="M237.92,96.8a.69.69,0,0,1-.71.66h-8.58a.69.69,0,0,1-.71-.66V88.74a.68.68,0,0,1,.71-.66h8.58a.68.68,0,0,1,.71.66Z"/><path class="9257f10e-ccfc-47a9-a7cd-a3a09b993c93" d="M249.59,96.8a.69.69,0,0,1-.71.66H240.3a.68.68,0,0,1-.7-.66V88.74a.68.68,0,0,1,.7-.66h8.58a.68.68,0,0,1,.71.66Z"/><path class="9257f10e-ccfc-47a9-a7cd-a3a09b993c93" d="M261.27,96.8a.69.69,0,0,1-.71.66H252a.69.69,0,0,1-.71-.66V88.74a.68.68,0,0,1,.71-.66h8.58a.68.68,0,0,1,.71.66Z"/><path class="9257f10e-ccfc-47a9-a7cd-a3a09b993c93" d="M272.94,96.8a.68.68,0,0,1-.71.66h-8.57a.69.69,0,0,1-.71-.66V88.74a.68.68,0,0,1,.71-.66h8.57a.68.68,0,0,1,.71.66Z"/><path class="9257f10e-ccfc-47a9-a7cd-a3a09b993c93" d="M103.73,108.72a.68.68,0,0,1-.71.66H94.44a.68.68,0,0,1-.7-.66v-8.06a.68.68,0,0,1,.7-.66H103a.68.68,0,0,1,.71.66Z"/><path class="9257f10e-ccfc-47a9-a7cd-a3a09b993c93" d="M115.41,108.72a.69.69,0,0,1-.71.66h-8.58a.69.69,0,0,1-.71-.66v-8.06a.68.68,0,0,1,.71-.66h8.58a.68.68,0,0,1,.71.66Z"/><path class="9257f10e-ccfc-47a9-a7cd-a3a09b993c93" d="M127.08,108.72a.68.68,0,0,1-.7.66h-8.59a.69.69,0,0,1-.7-.66v-8.06a.68.68,0,0,1,.7-.66h8.59a.68.68,0,0,1,.7.66Z"/><path class="9257f10e-ccfc-47a9-a7cd-a3a09b993c93" d="M138.76,108.72a.69.69,0,0,1-.71.66h-8.58a.69.69,0,0,1-.71-.66v-8.06a.68.68,0,0,1,.71-.66h8.58a.68.68,0,0,1,.71.66Z"/><path class="9257f10e-ccfc-47a9-a7cd-a3a09b993c93" d="M150.43,108.72a.68.68,0,0,1-.7.66h-8.58a.68.68,0,0,1-.71-.66v-8.06a.68.68,0,0,1,.71-.66h8.58a.68.68,0,0,1,.7.66Z"/><path class="9257f10e-ccfc-47a9-a7cd-a3a09b993c93" d="M162.11,108.72a.69.69,0,0,1-.71.66h-8.58a.69.69,0,0,1-.71-.66v-8.06a.68.68,0,0,1,.71-.66h8.58a.68.68,0,0,1,.71.66Z"/><path class="9257f10e-ccfc-47a9-a7cd-a3a09b993c93" d="M173.79,108.72a.69.69,0,0,1-.71.66H164.5a.69.69,0,0,1-.71-.66v-8.06a.68.68,0,0,1,.71-.66h8.58a.68.68,0,0,1,.71.66Z"/><path class="9257f10e-ccfc-47a9-a7cd-a3a09b993c93" d="M185.46,108.72a.69.69,0,0,1-.71.66h-8.58a.69.69,0,0,1-.71-.66v-8.06a.68.68,0,0,1,.71-.66h8.58a.68.68,0,0,1,.71.66Z"/><path class="9257f10e-ccfc-47a9-a7cd-a3a09b993c93" d="M197.14,108.72a.69.69,0,0,1-.71.66h-8.58a.69.69,0,0,1-.71-.66v-8.06a.68.68,0,0,1,.71-.66h8.58a.68.68,0,0,1,.71.66Z"/><path class="9257f10e-ccfc-47a9-a7cd-a3a09b993c93" d="M208.82,108.72a.69.69,0,0,1-.71.66h-8.59a.68.68,0,0,1-.7-.66v-8.06a.68.68,0,0,1,.7-.66h8.59a.68.68,0,0,1,.71.66Z"/><path class="9257f10e-ccfc-47a9-a7cd-a3a09b993c93" d="M220.49,108.72a.69.69,0,0,1-.71.66H211.2a.69.69,0,0,1-.71-.66v-8.06a.68.68,0,0,1,.71-.66h8.58a.68.68,0,0,1,.71.66Z"/><path class="9257f10e-ccfc-47a9-a7cd-a3a09b993c93" d="M232.16,108.72a.68.68,0,0,1-.7.66h-8.59a.69.69,0,0,1-.7-.66v-8.06a.68.68,0,0,1,.7-.66h8.59a.68.68,0,0,1,.7.66Z"/><path class="9257f10e-ccfc-47a9-a7cd-a3a09b993c93" d="M243.84,108.72a.69.69,0,0,1-.71.66h-8.58a.69.69,0,0,1-.71-.66v-8.06a.68.68,0,0,1,.71-.66h8.58a.68.68,0,0,1,.71.66Z"/><path class="9257f10e-ccfc-47a9-a7cd-a3a09b993c93" d="M255.52,108.72a.69.69,0,0,1-.71.66h-8.59a.69.69,0,0,1-.7-.66v-8.06a.68.68,0,0,1,.7-.66h8.59a.68.68,0,0,1,.71.66Z"/><path class="9257f10e-ccfc-47a9-a7cd-a3a09b993c93" d="M267.19,108.72a.69.69,0,0,1-.71.66H257.9a.69.69,0,0,1-.71-.66v-8.06a.68.68,0,0,1,.71-.66h8.58a.68.68,0,0,1,.71.66Z"/><path class="9257f10e-ccfc-47a9-a7cd-a3a09b993c93" d="M278.69,108.72a.68.68,0,0,1-.7.66h-8.58a.69.69,0,0,1-.71-.66v-8.06a.68.68,0,0,1,.71-.66H278a.68.68,0,0,1,.7.66Z"/><path class="9257f10e-ccfc-47a9-a7cd-a3a09b993c93" d="M109.48,120.05a.68.68,0,0,1-.7.66H100.2a.68.68,0,0,1-.71-.66V112a.69.69,0,0,1,.71-.67h8.58a.68.68,0,0,1,.7.67Z"/><path class="9257f10e-ccfc-47a9-a7cd-a3a09b993c93" d="M121.16,120.05a.68.68,0,0,1-.71.66h-8.58a.69.69,0,0,1-.71-.66V112a.69.69,0,0,1,.71-.67h8.58a.69.69,0,0,1,.71.67Z"/><path class="9257f10e-ccfc-47a9-a7cd-a3a09b993c93" d="M132.84,120.05a.69.69,0,0,1-.71.66h-8.58a.69.69,0,0,1-.71-.66V112a.69.69,0,0,1,.71-.67h8.58a.69.69,0,0,1,.71.67Z"/><path class="9257f10e-ccfc-47a9-a7cd-a3a09b993c93" d="M144.51,120.05a.68.68,0,0,1-.7.66h-8.59a.68.68,0,0,1-.7-.66V112a.68.68,0,0,1,.7-.67h8.59a.68.68,0,0,1,.7.67Z"/><path class="9257f10e-ccfc-47a9-a7cd-a3a09b993c93" d="M156.19,120.05a.69.69,0,0,1-.71.66H146.9a.69.69,0,0,1-.71-.66V112a.69.69,0,0,1,.71-.67h8.58a.69.69,0,0,1,.71.67Z"/><path class="9257f10e-ccfc-47a9-a7cd-a3a09b993c93" d="M167.86,120.05a.68.68,0,0,1-.7.66h-8.58a.68.68,0,0,1-.71-.66V112a.69.69,0,0,1,.71-.67h8.58a.68.68,0,0,1,.7.67Z"/><path class="9257f10e-ccfc-47a9-a7cd-a3a09b993c93" d="M179.54,120.05a.69.69,0,0,1-.71.66h-8.58a.69.69,0,0,1-.71-.66V112a.69.69,0,0,1,.71-.67h8.58a.69.69,0,0,1,.71.67Z"/><path class="9257f10e-ccfc-47a9-a7cd-a3a09b993c93" d="M191.22,120.05a.69.69,0,0,1-.71.66h-8.59a.69.69,0,0,1-.7-.66V112a.69.69,0,0,1,.7-.67h8.59a.69.69,0,0,1,.71.67Z"/><path class="9257f10e-ccfc-47a9-a7cd-a3a09b993c93" d="M202.89,120.05a.69.69,0,0,1-.71.66H193.6a.69.69,0,0,1-.71-.66V112a.69.69,0,0,1,.71-.67h8.58a.69.69,0,0,1,.71.67Z"/><path class="9257f10e-ccfc-47a9-a7cd-a3a09b993c93" d="M214.57,120.05a.69.69,0,0,1-.71.66h-8.58a.68.68,0,0,1-.71-.66V112a.69.69,0,0,1,.71-.67h8.58a.69.69,0,0,1,.71.67Z"/><path class="9257f10e-ccfc-47a9-a7cd-a3a09b993c93" d="M226.24,120.05a.69.69,0,0,1-.71.66H217a.68.68,0,0,1-.7-.66V112a.68.68,0,0,1,.7-.67h8.58a.69.69,0,0,1,.71.67Z"/><path class="9257f10e-ccfc-47a9-a7cd-a3a09b993c93" d="M237.92,120.05a.69.69,0,0,1-.71.66h-8.58a.69.69,0,0,1-.71-.66V112a.69.69,0,0,1,.71-.67h8.58a.69.69,0,0,1,.71.67Z"/><path class="9257f10e-ccfc-47a9-a7cd-a3a09b993c93" d="M249.59,120.05a.69.69,0,0,1-.71.66H240.3a.68.68,0,0,1-.7-.66V112a.68.68,0,0,1,.7-.67h8.58a.69.69,0,0,1,.71.67Z"/><path class="9257f10e-ccfc-47a9-a7cd-a3a09b993c93" d="M261.27,120.05a.69.69,0,0,1-.71.66H252a.69.69,0,0,1-.71-.66V112a.69.69,0,0,1,.71-.67h8.58a.69.69,0,0,1,.71.67Z"/><path class="9257f10e-ccfc-47a9-a7cd-a3a09b993c93" d="M272.94,120.05a.68.68,0,0,1-.71.66h-8.57a.69.69,0,0,1-.71-.66V112a.69.69,0,0,1,.71-.67h8.57a.69.69,0,0,1,.71.67Z"/><path class="9257f10e-ccfc-47a9-a7cd-a3a09b993c93" d="M109.48,143.62a.68.68,0,0,1-.7.66H100.2a.68.68,0,0,1-.71-.66v-8.06a.69.69,0,0,1,.71-.67h8.58a.68.68,0,0,1,.7.67Z"/><path class="9257f10e-ccfc-47a9-a7cd-a3a09b993c93" d="M121.16,143.62a.68.68,0,0,1-.71.66h-8.58a.69.69,0,0,1-.71-.66v-8.06a.69.69,0,0,1,.71-.67h8.58a.69.69,0,0,1,.71.67Z"/><path class="9257f10e-ccfc-47a9-a7cd-a3a09b993c93" d="M132.84,143.62a.69.69,0,0,1-.71.66h-8.58a.69.69,0,0,1-.71-.66v-8.06a.69.69,0,0,1,.71-.67h8.58a.69.69,0,0,1,.71.67Z"/><path class="9257f10e-ccfc-47a9-a7cd-a3a09b993c93" d="M144.51,143.62a.68.68,0,0,1-.7.66h-8.59a.68.68,0,0,1-.7-.66v-8.06a.68.68,0,0,1,.7-.67h8.59a.68.68,0,0,1,.7.67Z"/><path class="9257f10e-ccfc-47a9-a7cd-a3a09b993c93" d="M156.19,143.62a.69.69,0,0,1-.71.66H146.9a.69.69,0,0,1-.71-.66v-8.06a.69.69,0,0,1,.71-.67h8.58a.69.69,0,0,1,.71.67Z"/><path class="9257f10e-ccfc-47a9-a7cd-a3a09b993c93" d="M213.74,143.62a.69.69,0,0,1-.71.66H158.58a.68.68,0,0,1-.71-.66v-8.06a.69.69,0,0,1,.71-.67H213a.69.69,0,0,1,.71.67Z"/><path class="9257f10e-ccfc-47a9-a7cd-a3a09b993c93" d="M226.24,143.62a.69.69,0,0,1-.71.66H217a.68.68,0,0,1-.7-.66v-8.06a.68.68,0,0,1,.7-.67h8.58a.69.69,0,0,1,.71.67Z"/><path class="9257f10e-ccfc-47a9-a7cd-a3a09b993c93" d="M237.92,143.62a.69.69,0,0,1-.71.66h-8.58a.69.69,0,0,1-.71-.66v-8.06a.69.69,0,0,1,.71-.67h8.58a.69.69,0,0,1,.71.67Z"/><path class="9257f10e-ccfc-47a9-a7cd-a3a09b993c93" d="M249.59,143.62a.69.69,0,0,1-.71.66H240.3a.68.68,0,0,1-.7-.66v-8.06a.68.68,0,0,1,.7-.67h8.58a.69.69,0,0,1,.71.67Z"/><path class="9257f10e-ccfc-47a9-a7cd-a3a09b993c93" d="M261.27,143.62a.69.69,0,0,1-.71.66H252a.69.69,0,0,1-.71-.66v-8.06a.69.69,0,0,1,.71-.67h8.58a.69.69,0,0,1,.71.67Z"/><path class="9257f10e-ccfc-47a9-a7cd-a3a09b993c93" d="M272.94,143.62a.68.68,0,0,1-.71.66h-8.57a.69.69,0,0,1-.71-.66v-8.06a.69.69,0,0,1,.71-.67h8.57a.69.69,0,0,1,.71.67Z"/><path class="9257f10e-ccfc-47a9-a7cd-a3a09b993c93" d="M103.73,132a.69.69,0,0,1-.71.67H94.44a.68.68,0,0,1-.7-.67V123.9a.68.68,0,0,1,.7-.66H103a.68.68,0,0,1,.71.66Z"/><path class="9257f10e-ccfc-47a9-a7cd-a3a09b993c93" d="M115.41,132a.69.69,0,0,1-.71.67h-8.58a.69.69,0,0,1-.71-.67V123.9a.69.69,0,0,1,.71-.66h8.58a.69.69,0,0,1,.71.66Z"/><path class="9257f10e-ccfc-47a9-a7cd-a3a09b993c93" d="M127.08,132a.68.68,0,0,1-.7.67h-8.59a.69.69,0,0,1-.7-.67V123.9a.69.69,0,0,1,.7-.66h8.59a.68.68,0,0,1,.7.66Z"/><path class="9257f10e-ccfc-47a9-a7cd-a3a09b993c93" d="M138.76,132a.69.69,0,0,1-.71.67h-8.58a.69.69,0,0,1-.71-.67V123.9a.69.69,0,0,1,.71-.66h8.58a.69.69,0,0,1,.71.66Z"/><path class="9257f10e-ccfc-47a9-a7cd-a3a09b993c93" d="M150.43,132a.68.68,0,0,1-.7.67h-8.58a.69.69,0,0,1-.71-.67V123.9a.68.68,0,0,1,.71-.66h8.58a.68.68,0,0,1,.7.66Z"/><path class="9257f10e-ccfc-47a9-a7cd-a3a09b993c93" d="M162.11,132a.69.69,0,0,1-.71.67h-8.58a.69.69,0,0,1-.71-.67V123.9a.69.69,0,0,1,.71-.66h8.58a.69.69,0,0,1,.71.66Z"/><path class="9257f10e-ccfc-47a9-a7cd-a3a09b993c93" d="M173.79,132a.69.69,0,0,1-.71.67H164.5a.69.69,0,0,1-.71-.67V123.9a.69.69,0,0,1,.71-.66h8.58a.69.69,0,0,1,.71.66Z"/><path class="9257f10e-ccfc-47a9-a7cd-a3a09b993c93" d="M185.46,132a.69.69,0,0,1-.71.67h-8.58a.69.69,0,0,1-.71-.67V123.9a.69.69,0,0,1,.71-.66h8.58a.69.69,0,0,1,.71.66Z"/><path class="9257f10e-ccfc-47a9-a7cd-a3a09b993c93" d="M197.14,132a.69.69,0,0,1-.71.67h-8.58a.69.69,0,0,1-.71-.67V123.9a.69.69,0,0,1,.71-.66h8.58a.69.69,0,0,1,.71.66Z"/><path class="9257f10e-ccfc-47a9-a7cd-a3a09b993c93" d="M208.82,132a.69.69,0,0,1-.71.67h-8.59a.68.68,0,0,1-.7-.67V123.9a.68.68,0,0,1,.7-.66h8.59a.69.69,0,0,1,.71.66Z"/><path class="9257f10e-ccfc-47a9-a7cd-a3a09b993c93" d="M220.49,132a.69.69,0,0,1-.71.67H211.2a.69.69,0,0,1-.71-.67V123.9a.69.69,0,0,1,.71-.66h8.58a.69.69,0,0,1,.71.66Z"/><path class="9257f10e-ccfc-47a9-a7cd-a3a09b993c93" d="M232.16,132a.68.68,0,0,1-.7.67h-8.59a.69.69,0,0,1-.7-.67V123.9a.69.69,0,0,1,.7-.66h8.59a.68.68,0,0,1,.7.66Z"/><path class="9257f10e-ccfc-47a9-a7cd-a3a09b993c93" d="M243.84,132a.69.69,0,0,1-.71.67h-8.58a.69.69,0,0,1-.71-.67V123.9a.69.69,0,0,1,.71-.66h8.58a.69.69,0,0,1,.71.66Z"/><path class="9257f10e-ccfc-47a9-a7cd-a3a09b993c93" d="M255.52,132a.69.69,0,0,1-.71.67h-8.59a.69.69,0,0,1-.7-.67V123.9a.69.69,0,0,1,.7-.66h8.59a.69.69,0,0,1,.71.66Z"/><path class="9257f10e-ccfc-47a9-a7cd-a3a09b993c93" d="M267.19,132a.69.69,0,0,1-.71.67H257.9a.69.69,0,0,1-.71-.67V123.9a.69.69,0,0,1,.71-.66h8.58a.69.69,0,0,1,.71.66Z"/><path class="9257f10e-ccfc-47a9-a7cd-a3a09b993c93" d="M278.69,132a.68.68,0,0,1-.7.67h-8.58a.69.69,0,0,1-.71-.67V123.9a.69.69,0,0,1,.71-.66H278a.68.68,0,0,1,.7.66Z"/><rect class="f8cb8222-60b8-4ca4-aae4-a6e967db54f6" x="164.61" y="155.01" width="41.69" height="23.54" rx="1.7" ry="1.7"/><rect class="356b407c-0912-482d-b520-27a8edf11b64" x="28.84" width="314.43" height="10.88"/><path class="9257f10e-ccfc-47a9-a7cd-a3a09b993c93" d="M287.3,75.17c-1.05,1.22-4,2.21-6.54,2.21H88.85c-2.56,0-5.44-1-6.45-2.21L29.07,10.88c-1-1.21,1.44-2.2,5.48-2.2H337.88c4,0,6.45,1,5.39,2.2Z"/><path class="65fab840-5400-4c42-b133-1a3897063c6d" d="M280,70.55c-.81,1-3.32,1.89-5.6,1.89H95.44c-2.28,0-4.75-.85-5.52-1.89l-40.67-55c-.77-1,1.33-1.88,4.7-1.88H318.28c3.36,0,5.43.84,4.62,1.88Z"/><path class="2ed7d56d-45d4-4834-8186-187649ef1f38" d="M278.18,69.51c-.76,1-3.17,1.82-5.38,1.82H97.06c-2.21,0-4.59-.81-5.31-1.82l-38-53c-.72-1,1.3-1.82,4.52-1.82H314c3.22,0,5.21.82,4.45,1.82Q298.29,43,278.18,69.51Z"/><g class="a77b5d49-6d4c-4151-a597-dbf59f179829"><g class="5a1e3f8b-69d9-49c9-8dfb-7edbe76885d9"><path class="e019f2a1-196e-4cbe-9779-e154b847312d" d="M33.88,12.25Q58.93,43.2,84,74.15c1,1.17,3.72,2.12,6.21,2.12H276.72c5.56,0,8.63-1.45,9.6-2.62Z"/></g></g><path class="58d14451-62b1-4c84-a650-0303463b0da8" d="M338.84,196.46l-92.49,53.16s-24.9,11.47-13,29.79c0,0,1.9,5.48,6.64,2.18,0,0,5.63-3.78-2.46-9.11,0,0-7.57-5.52,10.94-16.92l93.78-49.45Z"/><path class="58d14451-62b1-4c84-a650-0303463b0da8" d="M219,238.18l105.51-15.74S351.1,216,353.19,237.7c0,0,1.91,5.48-3.86,5.83,0,0-6.76.53-3.72-8.68,0,0,2.51-9-19.09-6.47L222.3,247.82Z"/><path class="fb2c361f-d142-46ba-8376-35c4ab28544d" d="M277.86,248.87c-.7,3.26-3.62,7.3-5.95,9.45-8.55,7.86-26,7.38-34.18-1.78-4.24-4.76-7.34-12.86-2.45-18.22a26.6,26.6,0,0,1,9.28-6.13c3.22-1.32,13.69-4.95,21.69-4.95C276.47,227.25,279.74,240.05,277.86,248.87Z"/><path class="58d14451-62b1-4c84-a650-0303463b0da8" d="M267.94,223.91c-9.3,0-21.47,4.18-25.21,5.72A30.46,30.46,0,0,0,232,236.78c-5.66,6.26-2,15.76,2.91,21.34,9.52,10.75,29.83,11.37,39.75,2.19,2.7-2.51,6.09-7.23,6.88-11.05C283.66,239,279.82,224,267.94,223.91Zm9.92,25c-.7,3.26-3.62,7.3-5.95,9.45-8.55,7.86-26,7.38-34.18-1.78-4.24-4.76-7.34-12.86-2.45-18.22a26.6,26.6,0,0,1,9.28-6.13c3.22-1.32,13.69-4.95,21.69-4.95C276.47,227.25,279.74,240.05,277.86,248.87Z"/><path class="58d14451-62b1-4c84-a650-0303463b0da8" d="M328.15,203.31a30.43,30.43,0,0,0-12.88,1.08c-3.9,1.12-16,5.36-23.32,11.16-9.29,7.41-3,21.55,5.1,28.3,3,2.5,8.59,4.1,12.26,4.38,13.48,1,29-12,29.8-26.38C339.53,214.4,336.47,204.7,328.15,203.31Zm7.55,19.15c-.72,12.24-14.1,23.46-25.69,22.6-3.16-.23-8-1.59-10.53-3.72-6.94-5.74-12.33-17.81-4.32-24.15,6.27-5,16.73-8.63,20.07-9.59a26.45,26.45,0,0,1,11.09-.95C333.47,207.81,336.07,216.09,335.7,222.46Z"/><path class="58d14451-62b1-4c84-a650-0303463b0da8" d="M270.61,224.19s13.06-1.84,19.42-6.76l.06,13.63s-7.59-6.44-10.73,3.73Z"/><path class="58d14451-62b1-4c84-a650-0303463b0da8" d="M318,203.73a26.64,26.64,0,0,1,18.32,6.72l5.93-4.34-3.36-9.65C336.68,198.55,317.88,203.73,318,203.73Z"/><path class="58d14451-62b1-4c84-a650-0303463b0da8" d="M219,238.18l3.35,9.64,7.35-.27a26.62,26.62,0,0,1,10.19-16.64S221.94,238.47,219,238.18Z"/><path class="fb2c361f-d142-46ba-8376-35c4ab28544d" d="M335.7,222.46c-.72,12.24-14.1,23.46-25.69,22.6-3.16-.23-8-1.59-10.53-3.72-6.94-5.74-12.33-17.81-4.32-24.15,6.27-5,16.73-8.63,20.07-9.59a26.45,26.45,0,0,1,11.09-.95C333.47,207.81,336.07,216.09,335.7,222.46Z"/><path class="9257f10e-ccfc-47a9-a7cd-a3a09b993c93" d="M315.57,211.1a7.74,7.74,0,0,1,1.1-.67,11.9,11.9,0,0,1,3.25-1.1,10.72,10.72,0,0,1,4.95.23,10.49,10.49,0,0,1,2.62,1.16,13.16,13.16,0,0,1,2.29,1.85,9.15,9.15,0,0,1,1.64,2.54,11.48,11.48,0,0,1,.87,2.7,11.86,11.86,0,0,1-.63,6.8A9.67,9.67,0,0,1,331,226c-.19.36-.37.62-.49.81l-.18.28s.13-.45.32-1.23c.09-.39.19-.86.28-1.4a15.34,15.34,0,0,0,.2-1.82,13.63,13.63,0,0,0-.49-4.4,13.48,13.48,0,0,0-.89-2.3,7.66,7.66,0,0,0-1.35-2,11.07,11.07,0,0,0-4.07-2.76,11.84,11.84,0,0,0-2.23-.58,14.1,14.1,0,0,0-2.11-.14,16.31,16.31,0,0,0-3.22.38C316,211,315.57,211.1,315.57,211.1Z"/><path class="9257f10e-ccfc-47a9-a7cd-a3a09b993c93" d="M244.93,235.69a11.32,11.32,0,0,0-1.16.5,17.34,17.34,0,0,0-2.77,1.7,11.85,11.85,0,0,0-2.94,3.26,11,11,0,0,0-1.48,4.69,7.83,7.83,0,0,0,.19,2.42,13.32,13.32,0,0,0,3.08,6.11,15.87,15.87,0,0,0,1.28,1.3c.41.37.78.68,1.1.92.63.5,1,.77,1,.77l-.32-.11a9.39,9.39,0,0,1-.89-.33,12.44,12.44,0,0,1-1.33-.66,11.23,11.23,0,0,1-1.6-1.1,12.08,12.08,0,0,1-4.1-6.49,8.71,8.71,0,0,1-.29-3,13.53,13.53,0,0,1,.64-2.87,10.58,10.58,0,0,1,1.33-2.54,10.7,10.7,0,0,1,3.75-3.25,11.54,11.54,0,0,1,3.23-1.15A7.66,7.66,0,0,1,244.93,235.69Z"/></g></g></g></svg>