<?xml version="1.0" standalone="no"?>
<!DOCTYPE svg PUBLIC "-//W3C//DTD SVG 20010904//EN"
 "http://www.w3.org/TR/2001/REC-SVG-20010904/DTD/svg10.dtd">
<svg version="1.0" xmlns="http://www.w3.org/2000/svg"
 width="260.000000pt" height="260.000000pt" viewBox="0 0 260.000000 260.000000"
 preserveAspectRatio="xMidYMid meet">
<metadata>
Created by potrace 1.14, written by Peter Selinger 2001-2017
</metadata>
<g transform="translate(0.000000,260.000000) scale(0.100000,-0.100000)"
fill="#8c52ff" stroke="none">
<path d="M230 2593 c-106 -39 -176 -101 -208 -184 -21 -53 -21 -67 -21 -1107
-1 -1013 0 -1054 18 -1103 28 -72 79 -130 147 -164 l59 -30 1075 0 1075 0 47
22 c66 30 132 102 157 168 21 54 21 70 20 1108 0 1033 -1 1053 -20 1105 -25
65 -87 130 -154 163 l-50 24 -1065 2 c-586 1 -1072 -1 -1080 -4z"/>
</g>
</svg>
