<?xml version="1.0" standalone="no"?>
<!DOCTYPE svg PUBLIC "-//W3C//DTD SVG 20010904//EN"
 "http://www.w3.org/TR/2001/REC-SVG-20010904/DTD/svg10.dtd">
<svg version="1.0" xmlns="http://www.w3.org/2000/svg"
 width="260.000000pt" height="260.000000pt" viewBox="0 0 260.000000 260.000000"
 preserveAspectRatio="xMidYMid meet">
<metadata>
Created by potrace 1.14, written by Peter Selinger 2001-2017
</metadata>
<g transform="translate(0.000000,260.000000) scale(0.100000,-0.100000)"
fill="#000000" stroke="none">
<path d="M1068 2585 c-32 -7 -58 -10 -58 -7 0 3 -5 1 -12 -6 -7 -7 -21 -12
-32 -12 -18 0 -86 -22 -146 -47 -8 -3 -17 -7 -20 -8 -3 0 -36 -16 -75 -34 -38
-19 -71 -32 -72 -30 -1 2 -9 -5 -17 -16 -9 -11 -16 -15 -16 -10 0 7 -3 7 -8 0
-4 -5 -36 -30 -71 -54 -35 -25 -76 -57 -91 -73 -15 -15 -30 -28 -33 -28 -9 0
-54 -47 -105 -109 -25 -30 -50 -61 -56 -68 -29 -32 -36 -43 -36 -52 0 -5 -11
-22 -24 -38 -13 -15 -26 -38 -30 -50 -4 -13 -12 -23 -17 -23 -5 0 -8 -3 -7 -7
1 -5 -10 -34 -25 -65 -33 -69 -49 -108 -53 -128 -2 -8 -10 -40 -19 -70 -25
-85 -27 -94 -26 -115 0 -10 -4 -24 -9 -30 -10 -12 -7 -396 4 -439 29 -118 37
-148 56 -201 12 -33 31 -80 43 -105 11 -25 20 -48 19 -52 -1 -5 3 -8 9 -8 5 0
7 -4 4 -10 -3 -5 -3 -10 2 -10 4 0 14 -13 21 -29 24 -54 158 -227 222 -287 33
-31 47 -43 100 -87 40 -33 168 -117 179 -117 6 0 11 -4 11 -10 0 -5 9 -10 20
-10 11 0 20 -5 20 -12 0 -6 3 -9 6 -6 3 4 32 -7 64 -23 32 -16 66 -29 75 -29
9 0 26 -5 38 -12 23 -12 48 -18 182 -43 93 -17 338 -20 417 -5 127 25 257 62
301 86 15 8 27 12 27 9 0 -4 7 1 16 9 8 9 20 14 25 11 5 -4 9 -2 9 2 0 8 55
33 66 30 3 -1 10 6 15 16 6 9 14 15 20 12 5 -4 9 -2 9 3 0 5 26 25 58 45 31
20 73 50 92 67 77 69 120 110 120 115 0 5 17 25 82 95 9 10 14 21 11 24 -3 3
2 8 11 12 9 3 16 12 16 20 0 8 4 14 8 14 12 0 132 240 132 263 0 9 5 17 10 17
6 0 9 3 8 8 -2 4 2 25 9 47 48 165 52 194 48 395 -4 209 -5 226 -23 280 -6 19
-13 46 -15 60 -2 14 -11 42 -20 64 -9 21 -17 42 -17 47 0 5 -13 36 -29 68 -16
33 -26 62 -23 65 3 4 -1 6 -8 6 -7 0 -11 3 -7 6 3 4 -1 13 -9 21 -8 8 -12 19
-9 24 4 5 2 9 -4 9 -6 0 -18 15 -27 33 -9 17 -26 42 -37 55 -11 12 -18 22 -14
22 3 0 -4 11 -16 24 -12 13 -38 43 -57 66 -19 23 -50 56 -69 73 -19 18 -47 44
-63 60 -15 15 -31 27 -36 27 -5 0 -15 7 -22 15 -16 19 -146 105 -160 105 -5 0
-10 4 -10 8 0 5 -18 15 -40 22 -22 7 -40 17 -40 22 0 5 -4 6 -10 3 -5 -3 -10
-1 -10 4 0 6 -3 10 -7 10 -15 -3 -73 14 -73 20 0 4 -12 8 -27 9 -15 1 -29 5
-32 10 -7 8 -22 12 -64 17 -15 2 -32 7 -38 11 -33 20 -428 27 -511 9z m702
-369 c0 -2 -8 -10 -17 -17 -16 -13 -17 -12 -4 4 13 16 21 21 21 13z m-1110
-10 c0 -2 -8 -10 -17 -17 -16 -13 -17 -12 -4 4 13 16 21 21 21 13z m470 -240
c0 -2 -7 -7 -16 -10 -8 -3 -12 -2 -9 4 6 10 25 14 25 6z m1354 -884 c3 -5 -1
-9 -9 -9 -8 0 -12 4 -9 9 3 4 7 8 9 8 2 0 6 -4 9 -8z m-479 -71 c3 -5 2 -12
-3 -15 -5 -3 -9 1 -9 9 0 17 3 19 12 6z m-1785 -165 c0 -2 -8 -10 -17 -17 -16
-13 -17 -12 -4 4 13 16 21 21 21 13z m1880 -80 c0 -2 -8 -10 -17 -17 -16 -13
-17 -12 -4 4 13 16 21 21 21 13z m-1617 -241 c-3 -9 -8 -14 -10 -11 -3 3 -2 9
2 15 9 16 15 13 8 -4z m408 -2 c13 -16 12 -17 -3 -4 -10 7 -18 15 -18 17 0 8
8 3 21 -13z m550 -90 c13 -16 12 -17 -3 -4 -17 13 -22 21 -14 21 2 0 10 -8 17
-17z"/>
</g>
</svg>
