<?xml version="1.0" standalone="no"?>
<!DOCTYPE svg PUBLIC "-//W3C//DTD SVG 20010904//EN"
 "http://www.w3.org/TR/2001/REC-SVG-20010904/DTD/svg10.dtd">
<svg version="1.0" xmlns="http://www.w3.org/2000/svg"
 width="260.000000pt" height="260.000000pt" viewBox="0 0 260.000000 260.000000"
 preserveAspectRatio="xMidYMid meet">
<metadata>
Created by potrace 1.11, written by Peter Selinger 2001-2013
</metadata>
<g transform="translate(0.000000,260.000000) scale(0.100000,-0.100000)"
fill="#630094" stroke="none">
<path d="M0 1300 l0 -1300 1300 0 1300 0 0 1300 0 1300 -1300 0 -1300 0 0
-1300z m1421 696 c188 -40 306 -162 328 -337 24 -188 -54 -345 -211 -425 -27
-13 -48 -27 -48 -30 0 -3 74 -140 165 -305 91 -165 165 -302 165 -304 0 -3
-47 -5 -104 -5 l-103 0 -154 290 -154 290 -165 -2 -165 -3 -3 -287 -2 -288
-95 0 -95 0 0 710 0 710 288 0 c208 0 305 -4 353 -14z"/>
<path d="M978 1854 c-5 -4 -8 -126 -8 -272 l0 -264 193 4 c174 4 197 6 244 27
66 29 128 95 143 153 7 23 10 75 8 113 -8 116 -55 182 -159 221 -33 13 -89 18
-229 22 -102 2 -188 0 -192 -4z"/>
</g>
</svg>
